<?xml version="1.0" encoding="utf-8"?>
<!-- Generator: Adobe Illustrator 21.0.0, SVG Export Plug-In . SVG Version: 6.00 Build 0)  -->
<!DOCTYPE svg PUBLIC "-//W3C//DTD SVG 1.1//EN" "http://www.w3.org/Graphics/SVG/1.1/DTD/svg11.dtd">
<svg version="1.1" id="Layer_1" xmlns="http://www.w3.org/2000/svg" xmlns:xlink="http://www.w3.org/1999/xlink" x="0px" y="0px"
	 width="400px" height="400px" viewBox="0 0 400 400" style="enable-background:new 0 0 400 400;" xml:space="preserve">
<style type="text/css">
	.st0{fill:#010101;}
	.st1{fill:#FFFFFF;}
</style>
<rect x="0" class="st0" width="400" height="400"/>
<g>
	<path class="st1" d="M126.6,206c-14.4,0-26.1,11.6-26.1,26.1v52.2c0,14.4,11.6,26.1,26.1,26.1s26.1-11.6,26.1-26.1V232
		C152.7,217.6,141,206,126.6,206z M139.4,284.2c0,7-5.7,12.8-12.8,12.8c-7,0-12.8-5.7-12.8-12.8V232c0-7,5.7-12.8,12.8-12.8
		c7,0,12.8,5.7,12.8,12.8c0,0.1,0,0.3,0,0.4v51.4C139.4,283.9,139.4,284.1,139.4,284.2z"/>
	<path class="st1" d="M192.2,206c-14.4,0-26.1,11.6-26.1,26.1v52.2c0,14.4,11.6,26.1,26.1,26.1c14.4,0,26.1-11.6,26.1-26.1V232
		C218.3,217.6,206.5,206,192.2,206z M204.8,284.2c0,7-5.7,12.8-12.8,12.8c-7,0-12.8-5.7-12.8-12.8V232c0-7,5.7-12.8,12.8-12.8
		c7,0,12.8,5.7,12.8,12.8c0,0.1,0,0.3,0,0.4v51.4C204.8,283.9,204.8,284.1,204.8,284.2z"/>
	<polygon class="st1" points="270.4,208.5 270.4,275.6 245,208.5 231.6,208.5 231.6,307.3 245,307.3 245,282.6 245,260.1 245,239.4 
		270.4,307.3 283.7,307.3 283.7,208.5 	"/>
	<path class="st1" d="M75.7,238.8h13.4V232c0-14.4-11.6-26.1-26.1-26.1S37,217.5,37,232v3.5c0,8.4,4.3,15.7,10.8,20l0,0l22.8,15.9
		c3,2.2,4.9,5.7,5.1,9.7l0,0v2.7c0,0.1,0,0.3,0,0.4c0,7-5.7,12.8-12.8,12.8c-7,0-12.8-5.7-12.8-12.8v-7.3H37v7.3
		c0,14.4,11.6,26.1,26.1,26.1s26.1-11.6,26.1-26.1v-3.4l0,0c0-0.1,0-0.2,0-0.3c0-8.2-4.2-15.5-10.4-19.8l0,0l-22.4-15.3l0,0
		c-3.6-2.2-6.1-6.2-6.1-10.8c0-0.1,0-0.2,0-0.3l0,0v-2.1c0-7,5.7-12.8,12.8-12.8c7,0,12.8,5.7,12.8,12.8c0,0.1,0,0.3,0,0.4
		L75.7,238.8L75.7,238.8z"/>
	<rect x="297.1" y="320.7" class="st1" width="65.9" height="13.4"/>
</g>
</svg>
